<svg id="icons" enable-background="new 0 0 64 64" height="512" viewBox="0 0 64 64" width="512" xmlns="http://www.w3.org/2000/svg"><path d="m1.001 58.998c.553 0 1-.447 1-1v-5.852c0-.025-.013-.047-.015-.072.002-.025.015-.047.015-.072 0-3.309 2.691-6 6-6h4.499l5.7 7.611c.022.03.058.042.083.068.04.044.068.096.118.133.035.026.075.038.113.059.032.019.062.035.096.05.126.055.257.091.39.091h.001.001c.133 0 .263-.036.389-.09.035-.016.065-.032.099-.052.036-.021.076-.032.111-.058.049-.037.077-.089.118-.132.025-.027.061-.039.083-.069l5.7-7.611h4.499c3.309 0 6 2.691 6 6 0 .025.013.047.015.072-.002.025-.015.047-.015.072v5.852c0 .553.447 1 1 1s1-.447 1-1v-2.984h7.499c2.757 0 5-2.243 5-5v-4.998h.5c.553 0 1-.447 1-1v-7c0-.553-.447-1-1-1h-.5v-1.012h5.458c.263 0 .516-.104.702-.288l3.042-3.002c.191-.188.298-.444.298-.712v-20.988c0-.552-.447-1-1-1h-2v-2.008h4.999v51.005c0 .553.447 1 1 1s1-.447 1-1v-52.005c0-.552-.447-1-1-1h-6.989c-.004 0-.006-.002-.01-.002s-.006.002-.01.002h-12.98c-.004 0-.006-.002-.01-.002s-.006.002-.01.002h-5.99c-.553 0-1 .448-1 1s.447 1 1 1h5v2.008h-2c-.553 0-1 .448-1 1v20.988c0 .265.105.52.293.707l3 3.002c.188.188.441.293.707.293h5.5v1.012h-.5c-.553 0-1 .447-1 1v7c0 .553.447 1 1 1h.5v4.998c0 1.654-1.346 3-3 3h-7.499v-.867c0-.025-.013-.047-.015-.072.002-.025.015-.047.015-.072 0-4.411-3.589-8-8-8h-4v-2.743c4.752-2.52 7.999-7.513 8-13.255v-11c0-3.52-2.614-6.432-6-6.92v-4.08c0-.552-.447-1-1-1h-10c-7.168 0-13 5.832-13 13v9.977c0 .004.002.008.002.012s-.002.008-.002.012c0 5.743 3.248 10.737 8 13.257v2.743h-4c-4.411 0-8 3.589-8 8 0 .025.013.047.015.072-.002.025-.015.047-.015.072v5.852c0 .549.447.996 1 .996zm42.999-51.992h11v2.008h-11zm14 4.008v9.989h-17v-9.989zm-17 19.574v-7.585h17v7.581l-2.452 2.42h-12.134zm8 7.428h1v1h-1zm1 3v2h-1v-2zm-32.999-34.014h9v4c0 .552.447 1 1 1 2.757 0 5 2.243 5 5v3.585l-2.293-2.293c-.003-.003-.008-.004-.011-.007-.061-.059-.136-.097-.208-.138-.041-.023-.076-.059-.12-.076-.053-.021-.111-.021-.167-.033-.069-.014-.137-.038-.207-.038-.041 0-.081.019-.122.024-.089.012-.177.021-.261.057-.004.001-.008 0-.012.002-.044.019-4.439 1.916-9.6 1.916-5.141 0-9.556-1.897-9.6-1.917-.004-.002-.009-.001-.013-.003-.078-.033-.16-.04-.242-.052-.048-.007-.094-.027-.142-.027-.038 0-.074.017-.112.021-.09.01-.18.018-.263.051-.025.01-.045.032-.069.044-.092.046-.182.097-.256.169-.003.003-.007.003-.01.006l-2.294 2.287v-2.579c.002-6.064 4.937-10.999 11.002-10.999zm-11 21c0-.004-.002-.008-.002-.012s.002-.008.002-.012v-4.573l3.24-3.231c1.473.558 5.313 1.828 9.76 1.828 4.446 0 8.285-1.27 9.759-1.827l3.241 3.241v4.586c0 7.168-5.832 13-13 13s-13-5.832-13-13zm13 15c1.755 0 3.434-.318 5-.875v2.541l-5 6.677-5-6.677v-2.541c1.566.557 3.245.875 5 .875z"/></svg>