<svg id="icons" enable-background="new 0 0 64 64" height="512" viewBox="0 0 64 64" width="512" xmlns="http://www.w3.org/2000/svg"><path d="m57.023 37.004c.553 0 1-.447 1-1s-.447-1-1-1h-13.996c0-.553-.447-1-1-1s-1 .447-1 1h-2.002c-.553 0-1 .447-1 1s.447 1 1 1h2.002v.996h-2-3v-5.618l7.448-8.376h.55v1.998c0 .553.447 1 1 1h.002v2.998c0 .553.447 1 1 1h4.998c.553 0 1-.447 1-1v-2.998c.552-.002.998-.448.998-1v-1.998h1c.553 0 1-.447 1-1v-7.002c0-.05-.021-.092-.028-.14-.011-.072-.017-.143-.042-.21-.023-.063-.061-.113-.095-.168-.033-.055-.062-.109-.105-.156-.048-.053-.107-.089-.166-.13-.04-.029-.069-.068-.115-.091l-7.854-3.935-10.884-10.881c-.391-.391-1.023-.391-1.414 0l-3.504 3.504c-.391.391-.391 1.023 0 1.414l2.997 2.996c.002.003.003.006.005.008s.005.003.008.005l7.65 7.649-19.022 13.314c-.024.017-.036.042-.058.061-.054.045-.099.094-.142.148-.04.05-.075.099-.104.154s-.049.112-.067.173c-.02.066-.034.131-.04.2-.002.028-.017.054-.017.083v8.998 16 4.996c0 .553.447 1 1 1h1v2.004c0 .553.447 1 1 1h6c.553 0 1-.447 1-1v-2.004h14.994v2.004c0 .553.447 1 1 1h7c.553 0 1-.447 1-1v-2.004h1c.553 0 1-.447 1-1v-4.996c0-.553-.447-1-1-1h-2.006v-1c.549-.004.992-.448.992-.998s-.443-.994-.992-.998v-1.006c.549-.004.992-.448.992-.998s-.443-.994-.992-.998v-2.004c0-.553-.447-1-1-1h-9.994c-.553 0-1 .447-1 1v2.002h-.012c-.553 0-1 .447-1 1s.447 1 1 1h.012v1.002h-.012c-.553 0-1 .447-1 1s.447 1 1 1h.012v.998h-2.992v-10.996h16.996c.553 0 1-.447 1-1v-3.004c0-.553-.447-1-1-1h-13.997v-.996zm-26.996 24.996h-4v-1h4zm23.994 0h-5v-1h5zm-29.994-24v-7.478l18-12.598v4.701l-7.747 8.712c-.031.035-.043.08-.069.118-.042.063-.085.122-.112.193-.026.068-.032.138-.042.208-.008.05-.029.094-.029.145v5.999zm8.911-33.496 2.09-2.09 1.589 1.589-2.09 2.09zm5.092.913 6.677 6.675-1.79 2.391-6.977-6.976zm8.297 7.851 3.467 1.736h-4.768zm3.698 15.734h-2.998v-1.996h2.998zm.998-3.998h-4.998v-.998h4.998zm2-2.998h-1-6.998-.998v-5.002h8.996zm2.998 36.99h-31.994v-2.996h15 4.992 9.996 2.006zm-11.001-11.998h7.996v1.002h-7.996zm0 3.002h7.996v1.002h-7.996zm0 3.002h7.996v.998h-7.996zm-20.993.998v-14h14v2.004 11.996zm31.996-12.996h-15.996v-1.004h15.996z"/><path d="m31.027 40.998c-3.309 0-6 2.691-6 6s2.691 6 6 6 6-2.691 6-6-2.691-6-6-6zm0 10c-2.206 0-4-1.794-4-4s1.794-4 4-4 4 1.794 4 4-1.794 4-4 4z"/><path d="m31.027 43.998c-1.654 0-3 1.346-3 3s1.346 3 3 3 3-1.346 3-3-1.345-3-3-3zm0 4c-.552 0-1-.448-1-1s.448-1 1-1 1 .448 1 1-.448 1-1 1z"/><path d="m29.977 14c0-6.617-5.383-12-12-12s-12 5.383-12 12 5.383 12 12 12 12-5.383 12-12zm-12 10c-5.514 0-10-4.486-10-10s4.486-10 10-10 10 4.486 10 10-4.487 10-10 10z"/><path d="m21.522 16.749c-.274-.479-.887-.644-1.365-.367l-.188.108c-.149-.109-.307-.207-.479-.282v-.21c0-.553-.447-1-1-1s-1 .447-1 1v.21c-.171.075-.329.172-.478.282l-.187-.108c-.479-.276-1.09-.113-1.366.366-.276.478-.112 1.09.366 1.366l.191.11c-.01.091-.027.179-.027.271 0 .094.018.184.027.275l-.191.11c-.479.276-.643.889-.366 1.366.186.321.521.5.867.5.17 0 .342-.043.499-.134l.189-.109c.147.108.305.205.475.279v.212c0 .553.447 1 1 1s1-.447 1-1v-.212c.17-.074.327-.171.475-.279l.189.109c.157.091.329.134.499.134.346 0 .682-.179.867-.5.276-.478.112-1.09-.366-1.366l-.191-.11c.01-.092.027-.182.027-.275s-.018-.181-.027-.271l.192-.111c.48-.274.645-.886.368-1.364zm-3.532 1.747c0-.273.222-.496.495-.499.002 0 .003.001.005.001s.003-.001.005-.001c.273.003.495.226.495.499 0 .275-.225.5-.5.5s-.5-.225-.5-.5z"/><path d="m24.835 10.46c-.295-.461-.907-.597-1.369-.306-.466.29-.607.905-.321 1.374.025.042.624 1.044.027 1.899-1.091 1.564-.527 3.319-.022 4.11.189.298.51.459.838.459.182 0 .366-.05.532-.153.465-.291.606-.906.32-1.374-.025-.042-.624-1.042-.027-1.897 1.09-1.563.527-3.32.022-4.112z"/><path d="m17.287 13.949 2.828-2.83c1.17-1.17 1.17-3.072 0-4.242s-3.072-1.17-4.242 0l-2.828 2.83c-.92.92-1.105 2.29-.578 3.404l-1.545 1.545c-.391.391-.391 1.023 0 1.414.195.195.451.293.707.293s.512-.098.707-.293l1.544-1.544c.407.192.844.301 1.285.301.769 0 1.537-.293 2.122-.878zm-2.829-1.413c-.39-.391-.389-1.025.001-1.415l2.828-2.83c.391-.391 1.023-.391 1.414 0 .39.39.39 1.024 0 1.414l-2.828 2.83c-.391.392-1.026.39-1.415.001z"/></svg>